<?xml version="1.0" encoding="UTF-8"?>
<svg version="1.1" viewBox="0 0 1200 1200" width="1200" height="1200" xmlns="http://www.w3.org/2000/svg">
<path transform="translate(0)" d="m0 0h1200v1200h-1200z" fill="#FAFAFA"/>
<path transform="translate(0)" d="m0 0h1200v1200h-1200zm153 100-17 4-17 9-12 11-7 8-8 15-4 14-1 6v676l3 15 5 12 6 10 9 10 9 8 17 9 6 1 6 36 24 134 4 10 7 8 9 4h12l9-4 51-51 7-8 15-14 53-53 8-7 17-17 8-7 10-10 8-7 12-10 646-1 13-3 14-6 11-8 11-11 8-13 5-12 3-16v-672l-3-17-7-16-9-12-9-9-11-7-13-6-14-3z" fill="#FAFAFA"/>
<path transform="translate(153,100)" d="m0 0h894l17 4 17 9 12 11 8 10 8 16 3 12 1 8v672l-3 16-5 12-6 10-9 10-9 8-10 6-17 6-6 1-646 1-13 11-16 15-7 7-8 7-17 17-8 7-56 56-8 7-14 15-42 42-9 4h-12l-9-4-8-9-3-9-30-168v-2l-8-2-15-8-12-11-7-8-8-15-4-14-1-7v-676l3-14 5-12 6-10 9-10 9-8 17-9zm5 50-8 3-7 5-5 9-1 4v669l3 9 7 8 9 4 15 2 8 4 6 7 3 8 25 141 7-6 63-63 8-7 23-23 8-7 13-13 8-7 12-11 11-9 13-10 8-4 4-1 653-1 10-5 6-8 3-10v-665l-3-10-8-9-10-4z" fill="#A0CABF"/>
<path transform="translate(709,312)" d="m0 0h11l8 3 10 9 7 7 8 7 9 9 8 7 10 10 8 7 11 11 8 7 13 13 4 9v12l-5 10-12 12-7 8-8 8-7 8-9 9-7 8-9 9-7 8-10 10-7 8-12 12-7 8-4 4 2 4 12 12 8 7 10 10 8 7 9 9 8 7 10 10 8 7 11 11 8 7 4 8 1 4v8l-3 8-6 8-11 11-7 8-13 13-7 8-11 11-7 8-9 9-14 16-10 5h-13l-8-3-12-11-10-9-10-10-8-7-10-10-8-7-10-10-8-7-8-8-8-7-3-3-4 2-8 8-7 8-8 8-7 8-12 12-7 8-9 9-7 8-8 7-9 3h-8l-8-3-9-7-10-10-8-7-9-9-8-7-11-11-8-7-10-10-8-7-11-11-4-8-1-4v-7l3-9 12-14 11-11 7-8 10-10 7-8 7-7 7-8 10-10 1-4-13-13-8-7-9-9-8-7-10-10-8-7-11-11-8-7-10-10-8-7-5-10v-13l4-8 9-10 32-34 8-8 7-8 8-8 7-8 16-16 6-3 11-1 9 3 9 7 14 14 8 7 9 9 8 7 8 8 8 7 11 11 8 7 10 10 5 3 9-9 7-8 11-11 7-8 10-10 7-8 9-9 7-8 9-9 7-8 9-9 7-8 10-10z" fill="#A0CABF"/>
<path transform="translate(715,373)" d="m0 0 4 2 10 9 11 11 8 7 15 15-2 4-10 10-7 8-9 9-7 8-9 9-7 8-9 9-7 8-9 9-7 8-9 9-7 8-9 10-3 8v11l5 10 14 14 8 7 12 12 8 7 11 11 8 7 11 11 8 7 8 8 6 5-6 7-11 12-7 7-7 8-15 15-8-7-9-9-8-7-7-7-8-7-9-9-8-7-10-10-8-7-9-9-8-7-7-5-7-2-11 1-8 4-17 17-7 8-12 12-7 8-11 11-7 8-9 9-2 3-4-2-9-9-8-7-12-12-8-7-7-7 2-4 7-7 7-8 11-11 7-8 11-11 7-8 7-7 14-16 3-8v-9l-3-8-8-9-8-7-8-8-8-7-9-9-8-7-9-9-8-7-10-10-8-7-13-13 10-10 7-8 10-10 7-8 12-12 7 6 17 16 8 8 8 7 7 7 8 7 10 10 8 7 7 7 8 7 9 8 9 3h8l9-3 6-5 7-8 8-8 7-8 9-9 7-8 12-12 7-8 8-8 7-8 12-12 7-8 7-7z" fill="#FAFAFA"/>
</svg>
